<svg width="512" height="512" viewBox="0 0 512 512" fill="none" xmlns="http://www.w3.org/2000/svg">
  <!-- Dynamic shadows for stack effect -->
  <rect x="120" y="120" width="340" height="260" rx="20" fill="#000" fill-opacity="0.1"/>
  <rect x="80" y="80" width="340" height="260" rx="20" fill="#000" fill-opacity="0.1"/>
  
  <!-- Back Window 2 -->
  <rect x="110" y="110" width="346" height="266" rx="24" fill="#E3F2FD" stroke="#BBDEFB" stroke-width="4"/>
  
  <!-- Back Window 1 -->
  <rect x="70" y="70" width="346" height="266" rx="24" fill="#E3F2FD" stroke="#BBDEFB" stroke-width="4"/>
  
  <!-- Main Front Window -->
  <rect x="30" y="30" width="346" height="266" rx="24" fill="white" stroke="#90CAF9" stroke-width="4"/>
  
  <!-- Title Bar -->
  <path d="M30 54C30 40.7452 40.7452 30 54 30H352C365.255 30 376 40.7452 376 54V80H30V54Z" fill="#E1F5FE"/>
  
  <!-- Window Controls -->
  <circle cx="55" cy="55" r="7" fill="#FF5252"/>
  <circle cx="80" cy="55" r="7" fill="#FFD740"/>
  <circle cx="105" cy="55" r="7" fill="#69F0AE"/>
  
  <!-- Window Content Placeholders -->
  <rect x="50" y="100" width="306" height="60" rx="8" fill="#F5F5F5"/>
  <rect x="50" y="180" width="100" height="80" rx="8" fill="#F5F5F5"/>
  <rect x="170" y="180" width="186" height="30" rx="4" fill="#F5F5F5"/>
  <rect x="170" y="230" width="186" height="30" rx="4" fill="#F5F5F5"/>
  
  <!-- Hand Cursor -->
  <g transform="translate(220, 240) scale(1.2)">
    <path d="M30 70C30 70 10 50 10 40C10 30 20 25 25 35L25 15C25 10 30 10 30 15V50V15C30 10 35 10 35 15V50V18C35 13 40 13 40 18V50V25C40 20 45 20 45 25V60C45 75 30 85 30 85L30 70Z" 
          fill="white" stroke="#2196F3" stroke-width="5" stroke-linejoin="round"/>
  </g>
</svg>
